<svg width="1440" height="411" viewBox="0 0 1440 411" fill="none" xmlns="http://www.w3.org/2000/svg">
<path d="M1366.81 120.338V247.444C1366.81 258.668 1383.94 258.668 1383.94 247.444V120.338C1383.94 109.113 1366.81 109.113 1366.81 120.338Z" fill="black" fill-opacity="0.02"/>
<path d="M1789.13 55.1333C1788.41 51.5359 1785.75 48.3907 1781.08 48.3907H1422.68C1418.01 48.3907 1415.34 51.5163 1414.63 55.1333C1411.1 55.8606 1408.01 58.5733 1408.01 63.3305V255.975C1408.01 267.2 1425.13 267.2 1425.13 255.975V65.8074H1778.63V255.956C1778.63 267.18 1795.75 267.18 1795.75 255.956V63.3305C1795.75 58.5733 1792.68 55.8606 1789.13 55.1333Z" fill="black" fill-opacity="0.02"/>
<path d="M705.873 285.973H953.61C964.632 285.973 964.632 268.537 953.61 268.537H705.873C694.851 268.537 694.851 285.973 705.873 285.973Z" fill="black" fill-opacity="0.02"/>
<path d="M594.687 382.433V509.539C594.687 520.764 611.809 520.764 611.809 509.539V382.433C611.809 371.208 594.687 371.208 594.687 382.433Z" fill="black" fill-opacity="0.02"/>
<path d="M1064.8 509.559V382.433C1064.8 371.208 1047.67 371.208 1047.67 382.433V509.559C1047.67 520.783 1064.8 520.783 1064.8 509.559Z" fill="black" fill-opacity="0.02"/>
<path d="M690.759 327.922H1006.5V518.071C1006.5 529.295 1023.62 529.295 1023.62 518.071V325.426C1023.62 320.669 1020.55 317.956 1017 317.229C1016.29 313.631 1013.62 310.486 1008.95 310.486H650.55C645.879 310.486 643.215 313.612 642.501 317.229C638.968 317.956 635.88 320.669 635.88 325.426V518.071C635.88 529.295 653.002 529.295 653.002 518.071V327.922H690.778H690.759Z" fill="black" fill-opacity="0.02"/>
<path d="M938.09 369.852H965.327V534.445C965.327 545.67 982.449 545.67 982.449 534.445V361.124C982.449 356.406 978.53 352.416 973.898 352.416H685.643C681.01 352.416 677.092 356.406 677.092 361.124V534.445C677.092 545.67 694.214 545.67 694.214 534.445V369.852H938.129H938.09Z" fill="black" fill-opacity="0.02"/>
<path d="M924.134 411.782V560C924.134 571.225 941.256 571.225 941.256 560V403.073C941.256 398.356 937.338 394.365 932.705 394.365H726.798C722.165 394.365 718.246 398.356 718.246 403.073V560C718.246 571.225 735.368 571.225 735.368 560V411.782H924.153H924.134Z" fill="black" fill-opacity="0.02"/>
<path d="M1563.42 417.011C1570.75 424.481 1578.09 431.95 1585.4 439.401C1593.2 447.342 1605.3 435.017 1597.51 427.075C1546.76 375.395 1495.99 323.696 1445.24 272.016C1437.91 264.546 1430.57 257.076 1423.26 249.626C1415.46 241.684 1403.36 254.01 1411.15 261.951C1461.9 313.631 1512.67 365.331 1563.42 417.011Z" fill="black" fill-opacity="0.02"/>
<path d="M1103.4 439.578C1154.15 387.898 1204.92 336.198 1255.67 284.518C1263 277.048 1270.34 269.578 1277.65 262.128C1285.45 254.186 1273.35 241.861 1265.55 249.803C1214.8 301.483 1164.03 353.182 1113.29 404.862C1105.95 412.332 1098.62 419.802 1091.3 427.252C1083.5 435.194 1095.6 447.519 1103.4 439.578Z" fill="black" fill-opacity="0.02"/>
<path d="M1607.91 496.978C1534.13 421.846 1460.34 346.695 1386.56 271.564C1376.12 260.929 1365.68 250.294 1355.23 239.659C1351.8 236.16 1347.53 236.593 1344.48 238.854C1341.45 236.593 1337.18 236.141 1333.73 239.659C1259.95 314.791 1186.16 389.942 1112.38 465.074L1081.05 496.978C1073.25 504.92 1085.35 517.245 1093.15 509.303C1166.93 434.172 1240.73 359.021 1314.5 283.889C1324.5 273.706 1334.48 263.543 1344.48 253.361C1417.81 328.04 1491.15 402.72 1564.48 477.399L1595.81 509.303C1603.61 517.245 1615.71 504.92 1607.91 496.978Z" fill="black" fill-opacity="0.02"/>
<path d="M1375.58 319.666L1350.54 294.17C1347.28 290.848 1341.72 290.828 1338.44 294.17C1279.54 354.146 1220.67 414.101 1161.78 474.077C1153.32 482.687 1144.87 491.297 1136.41 499.887C1135.81 500.497 1135.2 501.126 1134.6 501.735C1131.33 505.057 1131.32 510.719 1134.6 514.061C1136.95 516.459 1139.29 518.837 1141.64 521.236C1144.81 524.459 1150.62 524.695 1153.75 521.236C1156.87 517.756 1157.12 512.35 1153.75 508.91C1153.42 508.576 1153.09 508.222 1152.74 507.888C1210.21 449.367 1267.69 390.827 1325.16 332.306L1344.46 312.648C1402.04 371.287 1459.62 429.926 1517.21 488.565C1525.54 497.057 1533.9 505.568 1542.24 514.061C1550.04 522.002 1562.14 509.677 1554.34 501.735C1494.74 441.032 1435.15 380.349 1375.54 319.646L1375.58 319.666Z" fill="black" fill-opacity="0.02"/>
<path d="M1350.54 353.477C1347.28 350.155 1341.72 350.135 1338.44 353.477C1329.35 362.736 1320.24 372.014 1311.14 381.273C1271.71 421.434 1232.27 461.594 1192.85 501.735C1189.59 505.057 1189.57 510.719 1192.85 514.061C1241.38 563.48 1289.91 612.899 1338.44 662.318C1341.7 665.641 1347.26 665.66 1350.54 662.318C1399.07 612.899 1447.6 563.48 1496.13 514.061C1499.39 510.738 1499.41 505.077 1496.13 501.735C1447.6 452.316 1399.07 402.897 1350.54 353.477ZM1211 507.908C1248.41 469.811 1285.84 431.695 1323.25 393.598C1330.33 386.384 1337.42 379.17 1344.5 371.955C1388.99 417.266 1433.49 462.577 1477.98 507.888C1433.49 553.199 1388.99 598.51 1344.5 643.821C1300.01 598.51 1255.51 553.199 1211.02 507.888L1211 507.908Z" fill="black" fill-opacity="0.02"/>
<path d="M1350.54 603.031C1379.65 573.387 1408.78 543.724 1437.89 514.08C1439.66 512.272 1440.38 510.227 1440.36 508.261C1440.36 508.144 1440.36 508.026 1440.36 507.908C1440.36 507.809 1440.36 507.711 1440.36 507.593C1440.36 505.608 1439.66 503.563 1437.89 501.755C1408.78 472.111 1379.65 442.448 1350.54 412.804C1347.28 409.482 1341.72 409.462 1338.44 412.804C1309.33 442.448 1280.2 472.111 1251.09 501.755C1247.83 505.077 1247.81 510.738 1251.09 514.08C1280.2 543.724 1309.33 573.387 1338.44 603.031C1341.7 606.353 1347.26 606.373 1350.54 603.031ZM1269.24 507.908L1344.5 431.263L1419.76 507.908C1394.67 533.463 1369.59 558.998 1344.5 584.553C1319.41 559.017 1294.33 533.463 1269.24 507.908Z" fill="black" fill-opacity="0.02"/>
<path d="M532.917 509.559C532.878 520.783 550 520.783 550.039 509.559C550.463 383.062 452.364 278.346 330.446 269.205V286.661C443.099 295.664 533.322 392.537 532.917 509.539V509.559Z" fill="black" fill-opacity="0.02"/>
<path d="M491.453 518.424C490.952 529.629 508.074 529.61 508.575 518.424C513.382 411.487 433.274 320.531 330.446 311.253V328.748C424.201 337.889 495.835 420.962 491.473 518.424H491.453Z" fill="black" fill-opacity="0.02"/>
<path d="M448.291 533.345C446.4 544.314 462.904 549.031 464.796 537.984C480.354 447.5 418.429 363.326 330.426 353.399V370.914C406.77 380.605 461.919 453.987 448.291 533.325V533.345Z" fill="black" fill-opacity="0.02"/>
<path d="M419.066 467.216C404.222 428.294 369.998 401.796 330.426 395.702V413.335C394.455 425.07 431.613 501.244 394.127 560.335C378.819 584.474 355.289 598.117 330.426 601.969V620.074C396.945 609.715 445.743 537.139 419.066 467.197V467.216Z" fill="black" fill-opacity="0.02"/>
<path d="M791.29 154.896C798.625 162.366 805.96 169.836 813.276 177.286C821.075 185.227 833.178 172.902 825.379 164.96C774.631 113.281 723.864 61.581 673.116 9.90103C665.78 2.43113 658.445 -5.03878 651.129 -12.489C643.331 -20.4307 631.228 -8.10537 639.026 -0.163682C689.774 51.5162 740.542 103.216 791.29 154.896Z" fill="black" fill-opacity="0.02"/>
<path d="M483.539 22.4033C490.874 14.9334 498.209 7.46349 505.525 0.0132465C513.324 -7.92844 501.221 -20.2538 493.422 -12.3121C442.674 39.3678 391.907 91.0674 341.159 142.747C337.588 146.384 334.016 150.021 330.426 153.677V178.229C330.716 177.993 330.986 177.758 331.256 177.463C382.004 125.783 432.771 74.0832 483.52 22.4033H483.539Z" fill="black" fill-opacity="0.02"/>
<path d="M572.372 -8.73438C645.705 65.945 719.038 140.624 792.37 215.304C802.813 225.938 813.256 236.573 823.699 247.208C831.498 255.15 843.601 242.824 835.803 234.883C762.026 159.751 688.23 84.6001 614.453 9.46859C604.01 -1.16619 593.567 -11.801 583.124 -22.4358C579.688 -25.9348 575.422 -25.5023 572.372 -23.2417C569.342 -25.5023 565.076 -25.9545 561.62 -22.4358C487.843 52.6957 414.047 127.847 340.271 202.978C336.989 206.32 333.708 209.662 330.445 212.984V237.635C401.095 165.688 471.745 93.7409 542.394 21.7939C552.393 11.6113 562.373 1.44827 572.372 -8.73438Z" fill="black" fill-opacity="0.02"/>
<path d="M603.45 57.5708C595.111 49.0787 586.753 40.5669 578.414 32.0748C575.152 28.7527 569.593 28.7331 566.311 32.0748C507.417 92.0503 448.542 152.006 389.648 211.982C381.194 220.592 372.739 229.202 364.284 237.812C363.686 238.421 363.068 239.05 362.47 239.659C359.207 242.982 359.188 248.643 362.47 251.985C364.825 254.383 367.16 256.762 369.515 259.16C372.681 262.384 378.491 262.62 381.618 259.16C384.745 255.68 384.996 250.275 381.618 246.835C381.29 246.5 380.943 246.166 380.614 245.812C438.08 187.292 495.565 128.751 553.031 70.2303C559.458 63.6843 565.906 57.1187 572.334 50.5727C629.915 109.211 687.496 167.85 745.078 226.489C753.417 234.981 761.775 243.493 770.114 251.985C777.913 259.927 790.016 247.601 782.217 239.659C722.609 178.957 663.02 118.274 603.412 57.5708H603.45Z" fill="black" fill-opacity="0.02"/>
<path d="M578.414 91.3819C575.152 88.0598 569.592 88.0401 566.311 91.3819C557.219 100.641 548.108 109.919 539.016 119.178C499.58 159.338 460.143 199.499 420.726 239.64C417.464 242.962 417.445 248.623 420.726 251.965C469.255 301.385 517.783 350.804 566.311 400.223C569.573 403.545 575.133 403.565 578.414 400.223C626.942 350.804 675.47 301.385 723.999 251.965C727.261 248.643 727.28 242.982 723.999 239.64C675.47 190.221 626.942 140.801 578.414 91.3819ZM572.372 381.745C527.878 336.434 483.384 291.123 438.891 245.812C476.3 207.716 513.729 169.6 551.139 131.503C558.223 124.289 565.307 117.074 572.391 109.86C616.885 155.171 661.379 200.482 705.873 245.793C661.379 291.104 616.885 336.414 572.391 381.725L572.372 381.745Z" fill="black" fill-opacity="0.02"/>
<path d="M478.964 239.66C475.702 242.982 475.683 248.643 478.964 251.985C508.073 281.629 537.202 311.292 566.311 340.936C569.573 344.258 575.133 344.277 578.414 340.936C607.523 311.272 636.652 281.629 665.761 251.985C667.537 250.176 668.251 248.132 668.232 246.166C668.232 246.048 668.232 245.93 668.232 245.812C668.232 245.714 668.232 245.616 668.232 245.498C668.232 243.512 667.537 241.468 665.742 239.66C636.633 209.996 607.504 180.352 578.395 150.709C575.133 147.387 569.573 147.367 566.292 150.709C537.183 180.352 508.054 210.016 478.945 239.66H478.964ZM647.616 245.812C622.541 271.367 597.447 296.903 572.372 322.438C547.278 296.903 522.203 271.348 497.109 245.812C522.203 220.257 547.278 194.722 572.372 169.167C597.466 194.722 622.541 220.257 647.616 245.812Z" fill="black" fill-opacity="0.02"/>
<path d="M537.202 251.985C546.911 261.873 556.621 271.76 566.311 281.629C569.573 284.951 575.133 284.97 578.414 281.629C588.124 271.741 597.833 261.853 607.523 251.985C609.299 250.176 610.013 248.132 609.994 246.166C609.994 246.048 609.994 245.93 609.994 245.812C609.994 245.714 609.994 245.616 609.994 245.498C609.994 243.512 609.299 241.468 607.523 239.659C597.814 229.772 588.104 219.884 578.414 209.996C575.152 206.674 569.592 206.654 566.311 209.996C556.601 219.884 546.892 229.772 537.202 239.659C533.939 242.982 533.92 248.643 537.202 251.985ZM572.372 228.494C578.047 234.273 583.722 240.053 589.398 245.832C583.722 251.611 578.047 257.391 572.372 263.17C566.697 257.391 561.022 251.611 555.347 245.832C561.022 240.053 566.697 234.273 572.372 228.494Z" fill="black" fill-opacity="0.02"/>
<path d="M1006.5 -6.14032C1006.5 5.08418 1023.62 5.08418 1023.62 -6.14032V-184.042H1006.5V-6.14032Z" fill="black" fill-opacity="0.02"/>
<path d="M652.982 -6.14032V-184.042H635.86V-6.14032C635.86 5.08418 652.982 5.08418 652.982 -6.14032Z" fill="black" fill-opacity="0.02"/>
<path d="M840.358 163.702H819.762C808.74 163.702 808.74 181.139 819.762 181.139H840.358C851.38 181.139 851.38 163.702 840.358 163.702Z" fill="black" fill-opacity="0.02"/>
<path d="M855.801 121.773H803.682C792.66 121.773 792.66 139.209 803.682 139.209H855.801C866.823 139.209 866.823 121.773 855.801 121.773Z" fill="black" fill-opacity="0.02"/>
<path d="M965.308 -154.358V10.2549C965.308 21.4794 982.43 21.4794 982.43 10.2549V-163.067C982.43 -167.784 978.511 -171.775 973.879 -171.775H685.624C680.991 -171.775 677.073 -167.784 677.073 -163.067V10.2549C677.073 21.4794 694.195 21.4794 694.195 10.2549V-154.358H965.346H965.308Z" fill="black" fill-opacity="0.02"/>
<path d="M880.895 79.8429H778.588C767.566 79.8429 767.566 97.2792 778.588 97.2792H880.895C891.917 97.2792 891.917 79.8429 880.895 79.8429Z" fill="black" fill-opacity="0.02"/>
<path d="M924.134 35.8098C924.134 47.0343 941.256 47.0343 941.256 35.8098V-121.137C941.256 -125.855 937.338 -129.845 932.705 -129.845H726.798C722.165 -129.845 718.246 -125.855 718.246 -121.137V35.8098C718.246 47.0343 735.368 47.0343 735.368 35.8098V-112.409H924.153V35.8098H924.134Z" fill="black" fill-opacity="0.02"/>
<path d="M900.063 46.6215V-79.1874C900.063 -81.7429 899.156 -83.689 897.766 -85.0847C897.689 -85.183 897.573 -85.2813 897.496 -85.3796C897.438 -85.4385 897.38 -85.4975 897.322 -85.5368C895.952 -86.9522 894.021 -87.8957 891.492 -87.8957H767.952C763.319 -87.8957 759.401 -83.9052 759.401 -79.1874V46.6215C759.401 51.3393 763.319 55.3298 767.952 55.3298H891.492C896.125 55.3298 900.044 51.3393 900.044 46.6215H900.063ZM882.941 37.9131H776.523V-70.4791H882.941V37.8935V37.9131Z" fill="black" fill-opacity="0.02"/>
<path d="M809.145 13.4001H850.319C854.951 13.4001 858.87 9.40958 858.87 4.69175V-37.238C858.87 -39.7935 857.963 -41.7396 856.573 -43.1353C856.496 -43.2336 856.38 -43.3319 856.302 -43.4302C856.245 -43.4891 856.187 -43.5481 856.129 -43.5874C854.758 -45.0028 852.828 -45.9463 850.299 -45.9463H809.126C804.493 -45.9463 800.574 -41.9558 800.574 -37.238V4.69175C800.574 9.40958 804.493 13.4001 809.126 13.4001H809.145ZM817.696 -28.5297H841.767V-4.01659H817.696V-28.5297Z" fill="black" fill-opacity="0.02"/>
<path d="M1087.11 6.44129C993.645 7.2276 908.363 63.9202 871.108 151.456C870.954 151.829 870.876 152.183 870.761 152.537C870.587 152.871 870.394 153.166 870.239 153.52C858.156 183.36 851.96 215.127 852.075 247.424C852.114 258.629 869.236 258.668 869.197 247.424C869.101 217.014 875.065 187.508 886.281 159.378C921.393 77.7985 999.436 24.5853 1087.13 23.858C1206.89 24.8015 1305.47 125.114 1305.06 247.424C1305.02 258.649 1322.15 258.649 1322.18 247.424C1322.63 115.639 1216.11 7.44383 1087.15 6.42163L1087.11 6.44129Z" fill="black" fill-opacity="0.02"/>
<path d="M1087.11 48.3907C1085.01 48.3907 1082.9 48.43 1080.8 48.489C972.855 53.2265 889.137 146.384 893.519 256.192C893.963 267.377 911.085 267.436 910.641 256.192C906.645 156.115 981.851 70.25 1080.8 65.9056C1082.9 65.8467 1085.01 65.8073 1087.11 65.8073C1188.32 66.7902 1268.19 153.579 1263.58 256.31C1263.08 267.514 1280.2 267.495 1280.7 256.31C1285.74 144.084 1197.25 49.4325 1087.11 48.371V48.3907Z" fill="black" fill-opacity="0.02"/>
<path d="M1112.53 381.47C1095.57 384.595 1078.42 384.576 1061.46 381.43C1050.69 379.425 1046.07 396.233 1056.9 398.238C1077.05 401.973 1096.92 401.992 1117.09 398.277C1127.92 396.292 1123.32 379.484 1112.53 381.47Z" fill="black" fill-opacity="0.02"/>
<path d="M1087.11 90.3204C990.885 91.5195 920.64 180.451 937.376 276.282C939.306 287.31 955.792 282.631 953.88 271.642C939.094 186.898 1002.74 108.799 1087.11 107.757C1171.29 108.818 1234.97 186.623 1220.42 271.249C1218.53 282.218 1235.03 286.936 1236.92 275.888C1253.37 180.175 1183.16 91.5391 1087.11 90.34V90.3204Z" fill="black" fill-opacity="0.02"/>
<path d="M1087.11 132.25C1062.54 132.742 1039.49 140.388 1019.76 155.387C1019.45 155.623 1019.22 155.879 1018.97 156.114C1018.66 156.311 1018.33 156.488 1018.02 156.744C982.854 185.601 967.18 233.86 980.249 278.228C991.599 316.816 1023.31 347.482 1061.98 356.426C1147.12 376.103 1223.1 288.705 1191.21 205.082C1174.46 161.167 1133.05 133.036 1087.13 132.23L1087.11 132.25ZM1166.25 298.239C1126.62 360.692 1032.04 353.261 1001.39 286.189C982.661 245.203 995.768 197.867 1029.36 169.737C1046.57 156.92 1065.67 150.119 1087.11 149.686C1160.35 150.964 1206.67 234.529 1166.25 298.239Z" fill="black" fill-opacity="0.02"/>
<path d="M1087.11 174.2C1057.62 175.045 1031.36 192.855 1021.04 221.378C1010.9 249.39 1019.69 281.923 1042.25 300.893C1091.86 342.587 1167.55 297.335 1156.26 232.956C1150.25 198.673 1120.6 175.143 1087.09 174.2H1087.11ZM1087.11 300.008C1058.1 300.126 1033.89 275.279 1033.89 245.812C1033.89 216.346 1058.12 192.442 1087.11 191.616C1116.1 192.442 1140.33 215.638 1140.33 245.812C1140.33 275.987 1116.12 299.891 1087.11 300.008Z" fill="black" fill-opacity="0.02"/>
<path d="M1089.66 216.385C1088.89 216.188 1088.06 216.07 1087.11 216.129C1086.18 216.07 1085.35 216.188 1084.58 216.385C1069.91 218.331 1057.96 229.949 1057.96 245.812C1057.96 261.676 1071.28 275.417 1087.11 275.495C1102.61 275.574 1115.53 262.58 1116.2 246.952C1116.91 230.656 1104.7 218.39 1089.66 216.385ZM1087.11 258.059C1071.53 258.059 1071.69 234.391 1087.11 233.546C1102.53 234.391 1102.67 258.059 1087.11 258.059Z" fill="black" fill-opacity="0.02"/>
<path d="M1161.78 -50.1137C1153.32 -41.5037 1144.87 -32.8936 1136.43 -24.3032C1135.83 -23.6939 1135.21 -23.0648 1134.62 -22.4554C1131.35 -19.1333 1131.33 -13.4719 1134.62 -10.1301C1136.97 -7.73187 1139.31 -5.35328 1141.66 -2.95506C1144.83 0.268803 1150.64 0.504689 1153.76 -2.95506C1156.89 -6.43446 1157.14 -11.8403 1153.76 -15.2804L1152.76 -16.3026C1207.68 -72.2286 1262.58 -128.135 1317.49 -184.061H1293.29C1249.45 -139.418 1205.61 -94.7759 1161.78 -50.1334V-50.1137Z" fill="black" fill-opacity="0.02"/>
<path d="M1350.54 -170.713C1347.28 -174.036 1341.72 -174.055 1338.44 -170.713C1329.35 -161.455 1320.24 -152.176 1311.14 -142.917C1271.71 -102.757 1232.27 -62.5964 1192.85 -22.4554C1189.59 -19.1333 1189.57 -13.4719 1192.85 -10.1301C1241.38 39.2892 1289.91 88.7085 1338.44 138.128C1341.7 141.45 1347.26 141.47 1350.54 138.128C1399.07 88.7085 1447.6 39.2892 1496.13 -10.1301C1499.39 -13.4522 1499.41 -19.1136 1496.13 -22.4554C1447.6 -71.8748 1399.07 -121.294 1350.54 -170.713ZM1344.5 119.65C1300.01 74.3388 1255.51 29.0279 1211.02 -16.2829C1248.43 -54.3795 1285.86 -92.4956 1323.27 -130.592C1330.35 -137.806 1337.43 -145.021 1344.52 -152.235C1389.01 -106.924 1433.51 -61.6135 1478 -16.3026C1433.51 29.0083 1389.01 74.3191 1344.52 119.63L1344.5 119.65Z" fill="black" fill-opacity="0.02"/>
<path d="M1251.09 -22.4555C1247.83 -19.1333 1247.81 -13.4719 1251.09 -10.1301C1280.2 19.5136 1309.33 49.177 1338.44 78.8207C1341.7 82.1428 1347.26 82.1625 1350.54 78.8207C1379.65 49.177 1408.78 19.5136 1437.89 -10.1301C1439.66 -11.9386 1440.38 -13.983 1440.36 -15.9488C1440.36 -16.0667 1440.36 -16.1847 1440.36 -16.3026C1440.36 -16.4009 1440.36 -16.4992 1440.36 -16.6171C1440.36 -18.6025 1439.66 -20.6469 1437.87 -22.4555C1408.76 -52.0992 1379.63 -81.7625 1350.52 -111.406C1347.26 -114.728 1341.7 -114.748 1338.42 -111.406C1309.31 -81.7625 1280.18 -52.0992 1251.07 -22.4555H1251.09ZM1419.74 -16.3026C1394.67 9.25233 1369.57 34.7876 1344.5 60.3425C1319.41 34.8073 1294.33 9.25233 1269.24 -16.3026L1344.5 -92.9477C1369.59 -67.3928 1394.67 -41.8575 1419.74 -16.3026Z" fill="black" fill-opacity="0.02"/>
<path d="M1309.33 -10.1301C1319.04 -0.242348 1328.75 9.64545 1338.44 19.5136C1341.7 22.8357 1347.26 22.8554 1350.54 19.5136C1360.25 9.62579 1369.96 -0.262005 1379.65 -10.1301C1381.43 -11.9386 1382.14 -13.983 1382.12 -15.9488C1382.12 -16.0667 1382.12 -16.1847 1382.12 -16.3026C1382.12 -16.4009 1382.12 -16.4992 1382.12 -16.6172C1382.12 -18.6026 1381.43 -20.647 1379.65 -22.4555C1369.94 -32.3433 1360.23 -42.2311 1350.54 -52.0992C1347.28 -55.4213 1341.72 -55.441 1338.44 -52.0992C1328.73 -42.2114 1319.02 -32.3236 1309.33 -22.4555C1306.07 -19.1333 1306.05 -13.4719 1309.33 -10.1301ZM1344.5 -33.621C1350.17 -27.8417 1355.85 -22.0623 1361.52 -16.283C1355.85 -10.5036 1350.17 -4.72429 1344.5 1.05506C1338.82 -4.72429 1333.15 -10.5036 1327.47 -16.283C1333.15 -22.0623 1338.82 -27.8417 1344.5 -33.621Z" fill="black" fill-opacity="0.02"/>
<path d="M334.094 172.116C333.978 169.364 332.588 166.631 330.426 164.98V179.114C332.665 177.561 334.209 175.084 334.094 172.116Z" fill="black" fill-opacity="0.02"/>
<path d="M491.453 -5.78653C490.951 5.41833 508.073 5.39866 508.575 -5.78653C511.934 -80.4659 473.868 -147.341 415.592 -184.042H377.719C447.114 -156.541 495.063 -86.029 491.453 -5.78653Z" fill="black" fill-opacity="0.02"/>
<path d="M340.406 119.374C337.086 119.984 333.765 120.436 330.426 120.809V138.206C335.252 137.754 340.097 137.086 344.961 136.182C355.79 134.196 351.196 117.389 340.406 119.374Z" fill="black" fill-opacity="0.02"/>
<path d="M448.291 9.13438C446.4 20.1033 462.904 24.8212 464.796 13.7736C480.354 -76.7105 418.429 -160.885 330.426 -170.812V-153.277C406.77 -143.586 461.919 -70.2039 448.291 9.13438Z" fill="black" fill-opacity="0.02"/>
<path d="M419.066 -56.9939C404.222 -95.9161 369.998 -122.415 330.426 -128.508V-110.876C394.455 -99.1399 431.613 -22.9666 394.127 36.1243C378.819 60.2639 355.289 73.9063 330.426 77.7592V95.8639C396.945 85.5043 445.743 12.9283 419.066 -57.0136V-56.9939Z" fill="black" fill-opacity="0.02"/>
<path d="M384.147 -29.1587C379.089 -58.0358 357.238 -79.2857 330.445 -85.8317V-67.8253C352.103 -60.8468 368.202 -40.8747 368.202 -16.283C368.202 8.30875 352.103 28.5758 330.445 35.4756V52.735C363.994 44.2233 391.25 11.3164 384.147 -29.139V-29.1587Z" fill="black" fill-opacity="0.02"/>
<path d="M344.073 -15.1428C344.556 -26.387 338.919 -35.6851 330.426 -41.0516V8.74121C338.263 3.61057 343.629 -5.23536 344.073 -15.1625V-15.1428Z" fill="black" fill-opacity="0.02"/>
<path d="M-64.4011 24.8605H183.336C194.358 24.8605 194.358 7.42421 183.336 7.42421H-64.4011C-75.4233 7.42421 -75.4233 24.8605 -64.4011 24.8605Z" fill="black" fill-opacity="0.02"/>
<path d="M277.381 121.301V248.427C277.381 259.651 294.503 259.651 294.503 248.427V121.301C294.503 110.076 277.381 110.076 277.381 121.301Z" fill="black" fill-opacity="0.02"/>
<path d="M246.708 56.0965C245.994 52.4992 243.33 49.3539 238.659 49.3539H-119.744C-124.415 49.3539 -127.079 52.4795 -127.793 56.0965C-131.326 56.8238 -134.414 59.5366 -134.414 64.2937V256.939C-134.414 268.163 -117.292 268.163 -117.292 256.939V66.7903H236.207V256.939C236.207 268.163 253.329 268.163 253.329 256.939V64.2937C253.329 59.5366 250.26 56.8238 246.708 56.0965Z" fill="black" fill-opacity="0.02"/>
<path d="M85.5072 384.851H33.3887C22.3665 384.851 22.3665 402.287 33.3887 402.287H85.5072C96.5294 402.287 96.5294 384.851 85.5072 384.851Z" fill="black" fill-opacity="0.02"/>
<path d="M203.585 91.3033H-84.6697C-89.3024 91.3033 -93.2209 95.2938 -93.2209 100.012V273.333C-93.2209 284.558 -76.099 284.558 -76.099 273.333V108.74H195.053V273.333C195.053 284.558 212.175 284.558 212.175 273.333V100.012C212.175 95.2938 208.256 91.3033 203.623 91.3033H203.585Z" fill="black" fill-opacity="0.02"/>
<path d="M110.602 342.921H8.29466C-2.72745 342.921 -2.72745 360.357 8.29466 360.357H110.602C121.624 360.357 121.624 342.921 110.602 342.921Z" fill="black" fill-opacity="0.02"/>
<path d="M162.411 133.233H-43.4958C-48.1286 133.233 -52.0471 137.224 -52.0471 141.941V298.868C-52.0471 310.093 -34.9252 310.093 -34.9252 298.868V150.65H153.86V298.868C153.86 310.093 170.982 310.093 170.982 298.868V141.941C170.982 137.224 167.063 133.233 162.43 133.233H162.411Z" fill="black" fill-opacity="0.02"/>
<path d="M127.222 177.699C127.222 177.699 127.106 177.581 127.048 177.541C125.677 176.126 123.747 175.182 121.218 175.182H-2.32224C-6.955 175.182 -10.8735 179.173 -10.8735 183.891V309.7C-10.8735 314.418 -6.955 318.408 -2.32224 318.408H121.218C125.851 318.408 129.77 314.418 129.77 309.7V183.891C129.77 181.335 128.862 179.389 127.472 177.994C127.395 177.895 127.279 177.797 127.202 177.699H127.222ZM112.667 300.991H6.24838V192.619H112.667V300.991Z" fill="black" fill-opacity="0.02"/>
<path d="M38.8707 276.478H80.0444C84.6772 276.478 88.5957 272.488 88.5957 267.77V225.84C88.5957 223.285 87.6884 221.339 86.2986 219.943C86.2214 219.845 86.1055 219.746 86.0283 219.648C85.9704 219.589 85.9126 219.53 85.8547 219.491C84.4841 218.075 82.5538 217.132 80.0251 217.132H38.8513C34.2186 217.132 30.3 221.122 30.3 225.84V267.77C30.3 272.488 34.2186 276.478 38.8513 276.478H38.8707ZM47.422 234.549H71.4931V259.062H47.422V234.549Z" fill="black" fill-opacity="0.02"/>
<path d="M100.815 414.534C100.66 414.907 100.583 415.261 100.467 415.615C100.294 415.949 100.101 416.244 99.9462 416.598C87.8624 446.438 81.666 478.205 81.7819 510.502C81.8205 521.707 98.9424 521.747 98.9038 510.502C98.8073 480.092 104.772 450.586 115.987 422.456C151.1 340.877 229.142 287.663 316.837 286.936C322.029 286.975 327.183 287.211 332.279 287.624V270.168C327.164 269.795 322.029 269.559 316.837 269.519C223.371 270.306 138.089 326.998 100.834 414.534H100.815Z" fill="black" fill-opacity="0.02"/>
<path d="M310.524 311.567C202.581 316.305 118.863 409.462 123.245 519.27C123.689 530.455 140.811 530.514 140.367 519.27C136.371 419.193 211.576 333.328 310.524 328.984C312.628 328.905 314.733 328.886 316.837 328.886C322.048 328.945 327.202 329.22 332.279 329.731V312.236C327.183 311.783 322.029 311.508 316.837 311.469C314.733 311.469 312.628 311.508 310.524 311.567Z" fill="black" fill-opacity="0.02"/>
<path d="M167.102 539.36C169.032 550.388 185.517 545.709 183.606 534.721C168.82 449.977 232.462 371.877 316.837 370.835C322.068 370.894 327.222 371.267 332.279 371.897V354.382C327.202 353.811 322.068 353.477 316.837 353.399C220.61 354.598 150.366 443.529 167.102 539.36Z" fill="black" fill-opacity="0.02"/>
<path d="M249.468 418.465C249.16 418.701 248.928 418.957 248.677 419.193C248.368 419.389 248.04 419.566 247.731 419.822C212.561 448.679 196.887 496.939 209.955 541.306C221.305 579.894 253.02 610.56 291.684 619.504C305.602 622.728 319.288 623.062 332.279 621.037V602.933C292.785 609.066 249.913 590.391 231.092 549.228C212.368 508.242 225.475 460.906 259.062 432.776C276.281 419.959 295.371 413.158 316.817 412.725C322.126 412.824 327.28 413.354 332.26 414.278V396.645C327.183 395.859 322.029 395.407 316.817 395.309C292.244 395.8 269.196 403.447 249.468 418.446V418.465Z" fill="black" fill-opacity="0.02"/>
<path d="M332.279 179.212V154.66C328.515 158.493 324.77 162.307 321.006 166.14C313.478 173.806 324.481 185.542 332.279 179.212Z" fill="black" fill-opacity="0.02"/>
<path d="M310.775 235.846C302.977 243.788 315.08 256.113 322.879 248.171L332.279 238.598V213.947C325.118 221.24 317.937 228.553 310.775 235.846Z" fill="black" fill-opacity="0.02"/>
<path d="M21.0155 417.974C28.3507 425.444 35.686 432.914 43.0019 440.364C50.8004 448.306 62.9034 435.98 55.1049 428.039C4.35683 376.359 -46.4104 324.659 -97.1585 272.979C-104.494 265.509 -111.829 258.039 -119.145 250.589C-126.943 242.648 -139.046 254.973 -131.248 262.915C-80.4999 314.594 -29.7325 366.294 21.0155 417.974Z" fill="black" fill-opacity="0.02"/>
<path d="M65.5096 497.961C-8.26718 422.829 -82.0633 347.678 -155.84 272.547C-166.283 261.912 -176.726 251.277 -187.169 240.642C-190.605 237.143 -194.871 237.576 -197.921 239.836C-200.952 237.576 -205.218 237.124 -208.673 240.642C-282.45 315.774 -356.246 390.925 -430.022 466.057L-461.352 497.961C-469.15 505.903 -457.047 518.228 -449.248 510.286C-375.472 435.155 -301.676 360.004 -227.899 284.872C-217.9 274.689 -207.92 264.526 -197.921 254.344C-124.588 329.023 -51.2554 403.703 22.0774 478.382L53.4066 510.286C61.205 518.228 73.308 505.903 65.5096 497.961Z" fill="black" fill-opacity="0.02"/>
<path d="M-166.843 320.649L-191.879 295.153C-195.141 291.831 -200.701 291.811 -203.982 295.153C-262.876 355.129 -321.751 415.084 -380.645 475.06C-389.1 483.67 -397.555 492.28 -406.009 500.87C-406.608 501.48 -407.226 502.109 -407.824 502.718C-411.086 506.04 -411.105 511.702 -407.824 515.043C-405.469 517.442 -403.133 519.82 -400.778 522.218C-397.613 525.442 -391.802 525.678 -388.675 522.218C-385.548 518.739 -385.297 513.333 -388.675 509.893C-389.003 509.559 -389.331 509.205 -389.679 508.871C-332.213 450.35 -274.728 391.81 -217.263 333.289L-197.96 313.631C-140.378 372.27 -82.797 430.909 -25.2156 489.547C-16.8766 498.04 -8.51825 506.551 -0.179291 515.043C7.6192 522.985 19.7222 510.66 11.9237 502.718C-47.6845 442.015 -107.273 381.332 -166.882 320.629L-166.843 320.649Z" fill="black" fill-opacity="0.02"/>
<path d="M319.983 164.666C315.582 164.725 311.2 164.666 306.799 164.43C302.321 164.194 298.035 168.597 298.248 173.138C298.46 178.053 302.012 181.611 306.799 181.846C311.2 182.082 315.582 182.161 319.983 182.082C322.454 182.043 324.906 181.945 327.376 181.807C329.114 181.709 330.832 181.08 332.279 180.097V165.963C330.909 164.902 329.249 164.292 327.376 164.39C324.906 164.528 322.454 164.626 319.983 164.666Z" fill="black" fill-opacity="0.02"/>
<path d="M123.245 -4.92144C123.689 6.26375 140.811 6.32271 140.367 -4.92144C137.182 -84.7118 184.32 -155.46 253.715 -183.059H216.132C157.894 -146.319 120.272 -79.4632 123.245 -4.92144Z" fill="black" fill-opacity="0.02"/>
<path d="M291.163 120.318C280.392 118.313 275.779 135.12 286.608 137.125C301.915 139.956 317.049 140.644 332.26 139.189V121.792C318.555 123.306 304.811 122.834 291.144 120.318H291.163Z" fill="black" fill-opacity="0.02"/>
<path d="M167.102 15.1497C169.032 26.1776 185.517 21.4991 183.606 10.5105C168.82 -74.2336 232.463 -152.333 316.837 -153.375C322.068 -153.316 327.222 -152.943 332.279 -152.314V-169.829C327.203 -170.399 322.068 -170.733 316.837 -170.812C220.61 -169.612 150.366 -80.6813 167.102 15.1497Z" fill="black" fill-opacity="0.02"/>
<path d="M249.469 -105.725C249.16 -105.489 248.928 -105.234 248.677 -104.998C248.368 -104.801 248.04 -104.624 247.731 -104.369C212.561 -75.5114 196.887 -27.2519 209.955 17.1154C221.305 55.7034 253.02 86.3693 291.685 95.3135C305.602 98.5373 319.288 98.8715 332.279 96.8468V78.7421C292.785 84.8753 249.913 66.2005 231.092 25.0374C212.368 -15.9487 225.475 -63.2843 259.062 -91.4144C276.281 -104.231 295.372 -111.033 316.818 -111.465C322.126 -111.367 327.28 -110.836 332.26 -109.912V-127.545C327.183 -128.331 322.029 -128.784 316.818 -128.882C292.245 -128.39 269.197 -120.744 249.469 -105.745V-105.725Z" fill="black" fill-opacity="0.02"/>
<path d="M250.762 -39.7345C240.628 -11.7223 249.411 20.8111 271.976 39.7807C290.411 55.2709 312.436 58.7503 332.279 53.7179V36.4585C327.376 38.0115 322.184 38.8764 316.837 38.8961C287.824 39.014 263.618 14.1668 263.618 -15.3C263.618 -44.7668 287.844 -68.6705 316.837 -69.4961C322.184 -69.3389 327.376 -68.415 332.279 -66.8424V-84.8488C327.28 -86.0675 322.107 -86.7752 316.837 -86.9325C287.342 -86.0872 261.089 -68.2774 250.762 -39.7541V-39.7345Z" fill="black" fill-opacity="0.02"/>
<path d="M316.837 -44.983C315.91 -45.042 315.08 -44.9241 314.308 -44.7275C299.638 -42.7814 287.689 -31.1637 287.689 -15.3C287.689 0.563702 301.008 14.3044 316.837 14.383C322.493 14.4027 327.782 12.6728 332.279 9.74383V-40.049C328.457 -42.4669 324.056 -44.0788 319.385 -44.7078C318.613 -44.9044 317.783 -45.0224 316.837 -44.9634V-44.983ZM316.837 -3.0533C301.259 -3.0533 301.413 -26.7211 316.837 -27.5664C332.26 -26.7211 332.395 -3.0533 316.837 -3.0533Z" fill="black" fill-opacity="0.02"/>
</svg>
